<?xml version="1.0" encoding="UTF-8" standalone="no"?>
<!-- Created with Inkscape (http://www.inkscape.org/) -->

<svg
   xmlns:dc="http://purl.org/dc/elements/1.1/"
   xmlns:cc="http://creativecommons.org/ns#"
   xmlns:rdf="http://www.w3.org/1999/02/22-rdf-syntax-ns#"
   xmlns:svg="http://www.w3.org/2000/svg"
   xmlns="http://www.w3.org/2000/svg"
   xmlns:sodipodi="http://sodipodi.sourceforge.net/DTD/sodipodi-0.dtd"
   xmlns:inkscape="http://www.inkscape.org/namespaces/inkscape"
   width="210mm"
   height="297mm"
   viewBox="0 0 744.09448819 1052.3622047"
   id="svg4386"
   version="1.1"
   inkscape:version="0.91 r13725"
   sodipodi:docname="prova.svg">
  <defs
     id="defs4388" />
  <sodipodi:namedview
     id="base"
     pagecolor="#ffffff"
     bordercolor="#666666"
     borderopacity="1.0"
     inkscape:pageopacity="0.0"
     inkscape:pageshadow="2"
     inkscape:zoom="0.98994949"
     inkscape:cx="613.89203"
     inkscape:cy="817.33278"
     inkscape:document-units="px"
     inkscape:current-layer="layer1"
     showgrid="false"
     inkscape:window-width="1920"
     inkscape:window-height="1031"
     inkscape:window-x="0"
     inkscape:window-y="25"
     inkscape:window-maximized="1" />
  <metadata
     id="metadata4391">
    <rdf:RDF>
      <cc:Work
         rdf:about="">
        <dc:format>image/svg+xml</dc:format>
        <dc:type
           rdf:resource="http://purl.org/dc/dcmitype/StillImage" />
        <dc:title></dc:title>
      </cc:Work>
    </rdf:RDF>
  </metadata>
  <g
     inkscape:label="Livello 1"
     inkscape:groupmode="layer"
     id="layer1">
    <path
       style="fill:none;fill-rule:evenodd;stroke:#000000;stroke-width:1px;stroke-linecap:butt;stroke-linejoin:miter;stroke-opacity:1"
       d="m 371.42857,260.93363 c -4.7619,0 -11.14998,-3.5837 -14.28571,0 -5.17159,5.91039 -3.80953,15.2381 -5.71429,22.85715 -4.7619,19.04762 -10.1149,37.95713 -14.28571,57.14285 -3.77306,17.35605 -22.93684,118.89141 -25.71429,140 -3.55401,27.01047 -2.85714,47.78343 -2.85714,74.28572 0,14.28571 0,28.57143 0,42.85714 0,2.02515 -0.36936,16.40414 0,17.14286 0.60234,1.20467 1.6066,2.35693 2.85714,2.85714 6.5952,2.63808 19.3818,3.81454 25.71429,5.71429 20.82918,6.24875 8.3034,6.09199 31.42857,11.42857 6.56189,1.51428 13.34396,1.83313 20,2.85714 5.72574,0.88088 11.44319,1.82084 17.14286,2.85714 4.77787,0.86871 9.54514,1.80369 14.28571,2.85715 3.83326,0.85183 7.54127,2.30181 11.42857,2.85714 2.82843,0.40406 5.71429,0 8.57143,0 0.95238,0 1.95363,-0.30117 2.85714,0 2.02031,0.67343 3.69398,2.18371 5.71429,2.85714 1.61199,0.53733 6.69398,0 8.57143,0 4.7619,0 9.52381,0 14.28571,0"
       id="path4934"
       inkscape:connector-curvature="0" />
    <circle
       id="path4936"
       style="fill:#000000;stroke:none"
       cx="585.71429"
       cy="543.79077"
       r="1.5" />
    <circle
       id="path4938"
       style="fill:#000000;stroke:none"
       cx="580"
       cy="726.64795"
       r="1.5" />
    <path
       style="fill:none;fill-rule:evenodd;stroke:#000000;stroke-width:1px;stroke-linecap:butt;stroke-linejoin:miter;stroke-opacity:1"
       d="m 528.57143,515.21935 0,-337.14286"
       id="path4940"
       inkscape:connector-curvature="0" />
    <path
       style="fill:none;fill-rule:evenodd;stroke:#000000;stroke-width:1px;stroke-linecap:butt;stroke-linejoin:miter;stroke-opacity:1"
       d="M 658.92857,305.21935 594.97985,288.68688"
       id="path4942"
       inkscape:connector-curvature="0" />
    <path
       style="fill:none;fill-rule:evenodd;stroke:#000000;stroke-width:1px;stroke-linecap:butt;stroke-linejoin:miter;stroke-opacity:1"
       d="m 601.04076,112.92034 c 0.82202,4.45287 3.92766,7.37847 6.06092,11.11168 0.74711,1.30744 1.34687,2.69374 2.0203,4.04061"
       id="path4944"
       inkscape:connector-curvature="0" />
    <path
       style="fill:none;fill-rule:evenodd;stroke:#000000;stroke-width:1px;stroke-linecap:butt;stroke-linejoin:miter;stroke-opacity:1"
       d="m 642.45702,209.89498 c -2.69374,-0.67343 -5.38748,-1.34687 -8.08122,-2.0203 -1.68359,-0.67344 -3.31396,-1.49927 -5.05076,-2.02031 -3.28904,-0.98671 -6.81249,-1.03359 -10.10153,-2.0203 -1.73681,-0.52105 -3.31396,-1.49927 -5.05076,-2.02031 -1.64452,-0.49335 -3.39433,-0.5584 -5.05077,-1.01015 -2.05455,-0.56033 -4.04061,-1.34687 -6.06091,-2.02031 -8.49369,-2.83122 -4.10351,-1.18142 -13.13198,-5.05076 -2.35703,-1.01015 -4.71405,-2.0203 -7.07107,-3.03046 -2.35702,-1.01015 -4.84458,-1.75817 -7.07107,-3.03045 -2.51491,-1.4371 -4.71404,-3.36718 -7.07107,-5.05077 -2.69374,-1.68358 -5.31258,-3.4934 -8.08122,-5.05076 -2.62492,-1.47652 -5.42384,-2.62334 -8.08122,-4.04061 -10.73101,-5.72321 -3.42436,-2.1073 -13.13198,-8.08122 -2.312,-1.42277 -4.78078,-2.58315 -7.07107,-4.04061 -1.42038,-0.90388 -2.63978,-2.09657 -4.04061,-3.03046 -3.26727,-2.17818 -6.83426,-3.88273 -10.10152,-6.06091 -1.40083,-0.93389 -2.63978,-2.09657 -4.04061,-3.03046 -1.63364,-1.08909 -3.4423,-1.90453 -5.05077,-3.03046 -7.00326,-4.90228 -2.82786,-2.89539 -9.09137,-7.07107 -1.63363,-1.08909 -3.41713,-1.94136 -5.05076,-3.03045 -6.11286,-4.07524 -2.22965,-1.95095 -8.08122,-7.07107 -7.58337,-6.63545 -0.78544,-0.0223 -7.07107,-5.05076 -0.74369,-0.59495 -1.2584,-1.44888 -2.02031,-2.02031 -0.60233,-0.45175 -1.41796,-0.5584 -2.0203,-1.01015 -1.52381,-1.14286 -2.5168,-2.89776 -4.04061,-4.04061 -0.60234,-0.45176 -1.41797,-0.5584 -2.02031,-1.01015 -0.7619,-0.57143 -1.34687,-1.34687 -2.0203,-2.02031 -0.33672,-0.33672 -0.58424,-0.79719 -1.01015,-1.01015 -0.30117,-0.15059 -0.70899,0.15058 -1.01016,0 -2.17872,-1.08936 0.15842,-0.93095 -2.0203,-2.02031 -0.30117,-0.15058 -0.77206,0.2381 -1.01015,0 -0.2381,-0.23809 0.23809,-0.77205 0,-1.01015 -0.2381,-0.2381 -0.70899,0.15058 -1.01016,0 -0.42591,-0.21296 -0.58423,-0.79719 -1.01015,-1.01015 -0.30117,-0.15059 -0.67343,0 -1.01015,0 -0.33672,0 -0.67344,0 -1.01015,0 -1.68359,0 -3.36718,0 -5.05077,0 -3.03045,0 -6.06091,0 -9.09137,0 -0.81321,0 -3.40658,-0.21134 -4.04061,0 -7.31696,2.43898 1.59261,-0.29123 -3.03046,2.0203 -9.65717,4.82859 2.84146,-2.88871 -5.05076,3.03046 -0.60234,0.45175 -1.34687,0.67344 -2.02031,1.01015 -0.67343,0.33672 -1.28986,0.82754 -2.0203,1.01016 -5.54646,1.38661 1.6826,-1.85146 -4.04061,1.01015"
       id="path4946"
       inkscape:connector-curvature="0" />
    <path
       style="fill:none;fill-rule:evenodd;stroke:#000000;stroke-width:1px;stroke-linecap:butt;stroke-linejoin:miter;stroke-opacity:1"
       d="m 247.48737,105.84927 0,149.50258"
       id="path4948"
       inkscape:connector-curvature="0" />
    <path
       style="fill:none;fill-rule:evenodd;stroke:#000000;stroke-width:1px;stroke-linecap:butt;stroke-linejoin:miter;stroke-opacity:1;image-rendering:auto"
       d="M 419.21331,191.71224 307.08637,228.07773"
       id="path4950"
       inkscape:connector-curvature="0" />
  </g>
</svg>
